<svg width="64" height="64" viewBox="0 0 64 64" fill="none" xmlns="http://www.w3.org/2000/svg">
  <defs><linearGradient id="g" x1="9" y1="7" x2="55" y2="58" gradientUnits="userSpaceOnUse"><stop stop-color="#0D7C72"/><stop offset="1" stop-color="#134E4A"/></linearGradient></defs>
  <rect width="64" height="64" rx="18" fill="#F7FBFA"/>
  <circle cx="32" cy="32" r="25" fill="url(#g)"/>
  <path d="M32 14c-7 0-12 5-12 12 0 4 2 8 5 10l7 8 7-8c3-2 5-6 5-10 0-7-5-12-12-12Z" fill="white"/>
  <path d="M25 30c4-3 8-4 14-3M27 24c3-3 7-4 11-2" stroke="#0D7C72" stroke-width="4" stroke-linecap="round"/>
  <path d="M32 45c0-8 4-15 11-20" stroke="#D99542" stroke-width="4" stroke-linecap="round"/>
</svg>
